<svg width="155" height="45" viewBox="0 0 155 45" fill="none" xmlns="http://www.w3.org/2000/svg">
<path d="M60.5186 22.648C60.3956 20.2963 61.0806 17.973 62.4608 16.0607C63.0644 15.2667 63.8498 14.6279 64.7517 14.1975C65.6535 13.7671 66.6457 13.5576 67.6454 13.5863C68.5537 13.5448 69.4592 13.7142 70.2904 14.0811C71.1216 14.4479 71.8557 15.0022 72.4347 15.7002L72.6166 13.914H76.2203V31.1034C76.273 32.1237 76.1048 33.1433 75.7271 34.0932C75.3494 35.0431 74.7711 35.9012 74.0313 36.6091C72.4102 38.0154 70.3029 38.7383 68.1557 38.6247C66.8339 38.6213 65.5275 38.3422 64.3207 37.8054C63.2049 37.3641 62.2277 36.6344 61.4897 35.6916L63.3825 33.2991C63.9219 33.984 64.6119 34.5366 65.3994 34.9145C66.187 35.2923 67.0511 35.4853 67.9253 35.4785C69.075 35.5416 70.2037 35.1533 71.069 34.397C71.4734 33.9834 71.7852 33.4891 71.9838 32.9468C72.1824 32.4046 72.2633 31.8265 72.2213 31.2508V30.0546C71.6411 30.6909 70.9276 31.1925 70.1312 31.5238C69.3347 31.8551 68.4749 32.0081 67.6125 31.9719C66.6237 31.9907 65.6445 31.7764 64.7548 31.3463C63.8652 30.9163 63.0903 30.2828 62.4937 29.4975C61.0713 27.5048 60.3745 25.0884 60.5186 22.648ZM64.5017 22.9921C64.4205 24.4737 64.7998 25.9441 65.588 27.2034C65.9262 27.6915 66.3824 28.087 66.9146 28.3533C67.4467 28.6196 68.0377 28.7483 68.6329 28.7273C69.3665 28.7597 70.0942 28.5826 70.73 28.2168C71.3658 27.8511 71.8832 27.3119 72.2213 26.6629V18.8629C71.884 18.2238 71.3699 17.6944 70.7398 17.3372C70.1097 16.98 69.39 16.8101 68.6659 16.8475C68.0623 16.8252 67.4629 16.9564 66.9244 17.2288C66.3858 17.5012 65.9259 17.9057 65.588 18.4042C64.7737 19.7911 64.3953 21.3891 64.5017 22.9921ZM79.5952 22.6152C79.5691 20.9939 79.9242 19.389 80.632 17.9287C81.2635 16.5954 82.2771 15.4779 83.5453 14.717C84.8492 13.9489 86.3421 13.5575 87.8569 13.5863C88.939 13.5437 90.0181 13.7273 91.0246 14.1253C92.0311 14.5232 92.9427 15.1267 93.7007 15.8967C95.2557 17.5633 96.1248 19.7507 96.1359 22.0253L96.1533 22.9594C96.1816 24.5791 95.8323 26.1832 95.1328 27.6459C94.5071 28.9736 93.4987 30.0859 92.2359 30.8411C90.9209 31.612 89.4163 32.0035 87.8906 31.9719C86.7623 32.019 85.6373 31.8206 84.5939 31.3904C83.5506 30.9602 82.614 30.3086 81.8496 29.481C80.2793 27.6211 79.4739 25.2385 79.5952 22.8118V22.6152ZM83.5943 22.9594C83.5081 24.4739 83.9058 25.9767 84.7302 27.2525C85.087 27.7504 85.5628 28.152 86.1145 28.421C86.6663 28.6899 87.2767 28.8177 87.8906 28.7929C88.5055 28.8175 89.1166 28.686 89.6664 28.4108C90.2162 28.1356 90.6867 27.7257 91.0337 27.2198C91.8805 25.8384 92.2773 24.23 92.1695 22.6152C92.2511 21.1066 91.8413 19.6122 91.001 18.3542C90.6397 17.8677 90.1691 17.4721 89.6268 17.199C89.0845 16.9259 88.4856 16.7828 87.8779 16.7812C87.2702 16.7796 86.6705 16.9195 86.1268 17.1898C85.5831 17.4601 85.1104 17.8532 84.7465 18.3378C83.8818 19.7185 83.4784 21.3363 83.5943 22.9594ZM105.551 26.5971L109.32 13.914H113.452L107.279 31.6441H103.806L97.5843 13.914H101.733L105.551 26.5971ZM115.69 27.4492C116.007 27.4294 116.324 27.4761 116.622 27.5862C116.92 27.6962 117.191 27.8673 117.418 28.0882C117.81 28.5161 118.027 29.0742 118.027 29.6532C118.027 30.2321 117.81 30.7902 117.418 31.2181C116.935 31.6102 116.33 31.8244 115.706 31.8244C115.083 31.8244 114.478 31.6102 113.994 31.2181C113.787 31.016 113.625 30.7733 113.517 30.5053C113.409 30.2372 113.359 29.9498 113.369 29.6614C113.36 29.3719 113.409 29.0836 113.513 28.8134C113.618 28.5432 113.776 28.2966 113.978 28.0882C114.202 27.8682 114.471 27.6976 114.766 27.5875C115.061 27.4774 115.375 27.4303 115.69 27.4492Z" fill="white"/>
<path d="M129.926 28.7929C130.834 28.8249 131.722 28.5148 132.411 27.9244C132.726 27.6589 132.983 27.3309 133.164 26.9613C133.346 26.5918 133.448 26.1887 133.464 25.7777H137.233C137.188 26.8867 136.828 27.9603 136.196 28.8748C135.529 29.8422 134.622 30.6212 133.563 31.1361C132.451 31.6943 131.221 31.9807 129.975 31.9719C128.871 32.024 127.768 31.8355 126.745 31.4194C125.722 31.0033 124.802 30.3698 124.05 29.563C122.501 27.7012 121.718 25.3238 121.86 22.9101V22.5005C121.741 20.1477 122.517 17.8365 124.033 16.0278C124.778 15.2108 125.696 14.5681 126.721 14.146C127.745 13.7239 128.851 13.5328 129.958 13.5863C131.858 13.5068 133.714 14.1716 135.127 15.438C135.795 16.0551 136.326 16.8032 136.689 17.6352C137.051 18.4673 137.237 19.365 137.233 20.272H133.464C133.453 19.332 133.075 18.4331 132.411 17.7649C132.087 17.4392 131.699 17.1837 131.272 17.0145C130.844 16.8453 130.386 16.766 129.926 16.7817C129.348 16.7531 128.773 16.8667 128.25 17.1125C127.728 17.3583 127.274 17.7287 126.93 18.1909C126.134 19.4586 125.76 20.9435 125.86 22.4349V23.0741C125.752 24.5825 126.114 26.0875 126.897 27.3836C127.247 27.8482 127.706 28.2199 128.234 28.4658C128.762 28.7116 129.343 28.8239 129.926 28.7929ZM146.484 25.9417L150.105 13.914H154.367L147.291 34.3315C146.204 37.3138 144.36 38.8049 141.759 38.8049C141.107 38.7943 140.459 38.6951 139.834 38.51V35.4294L140.591 35.4785C141.388 35.5348 142.183 35.3399 142.863 34.9214C143.453 34.4529 143.879 33.8104 144.08 33.0861L144.656 31.5621L138.402 13.914H142.714L146.484 25.9417Z" fill="#FFAD2D"/>
<g clip-path="url(#clip0_1889_637)">
<path d="M35.5801 2.05936C35.5801 2.05936 36.3381 12.6832 32.3991 20.4522C28.1998 28.7445 22.5433 31.7049 22.5433 31.7049L22.4992 31.7239L22.4572 31.7049C22.4572 31.7049 16.8028 28.7509 12.5888 20.4522C8.65821 12.6832 9.41409 2.05936 9.41409 2.05936C9.41409 2.05936 12.3137 3.95836 15.1819 4.62934C17.5232 5.17792 19.9168 5.46941 22.3207 5.49866H22.6945C25.0921 5.4685 27.4794 5.17702 29.8144 4.62934C32.6826 3.95625 35.5822 2.05936 35.5822 2.05936M36.5984 0L34.946 1.08032C34.9187 1.0972 32.1765 2.87382 29.5478 3.48994C27.3001 4.02149 25.0013 4.3045 22.6924 4.33394H22.3186C20.0048 4.30499 17.7011 4.02198 15.4485 3.48994C12.8218 2.87382 10.0797 1.0972 10.044 1.08032L8.40205 0L8.25927 1.97496C8.22778 2.42228 7.52439 13.0145 11.562 20.9819C15.8853 29.5105 21.674 32.6122 21.9197 32.7409L21.9428 32.7535L21.9659 32.7641L22.0079 32.7831L22.4824 33.0067L22.9632 32.7957L23.0073 32.7747L23.0451 32.7599L23.0808 32.7409C23.3244 32.6122 29.1131 29.5105 33.4363 20.9819C37.4761 13.0145 36.7706 2.41384 36.7391 1.97496L36.5984 0Z" fill="white"/>
<path d="M2.30694 4.06592C1.98644 5.10305 1.83402 6.18523 1.85551 7.27101C1.87651 9.42532 2.98513 10.4782 2.98513 10.4782C2.98513 10.4782 3.92158 9.19111 3.43446 7.10221C2.88014 4.74112 2.30694 4.06592 2.30694 4.06592Z" fill="white"/>
<path d="M5.29786 16.3293C5.27897 15.7575 5.53303 15.2743 5.87107 15.2743C6.20912 15.2743 6.50097 15.7195 6.51567 16.2955C6.53037 16.8716 6.27421 17.3505 5.94246 17.3505C5.61071 17.3505 5.31256 16.9074 5.29786 16.3314" fill="white"/>
<path d="M7.19336 28.3922C7.66228 29.3706 8.28473 30.2668 9.03686 31.0466C10.5066 32.6122 12.0352 32.6228 12.0352 32.6228C12.0352 32.6228 11.8483 31.0382 10.0657 29.8397C8.07312 28.4956 7.19336 28.3922 7.19336 28.3922Z" fill="white"/>
<path d="M12.1856 27.4448C12.0808 28.5259 12.1517 29.617 12.3956 30.6752C12.8617 32.7852 14.1635 33.5765 14.1635 33.5765C14.1635 33.5765 14.8123 32.1248 13.9011 30.1709C12.8764 27.9871 12.1814 27.4448 12.1814 27.4448" fill="white"/>
<path d="M10.3069 28.8162C10.1684 28.2592 10.3216 27.7401 10.6471 27.6621C10.9725 27.584 11.3505 27.9617 11.487 28.5229C11.6234 29.0842 11.487 29.599 11.1489 29.6792C10.8109 29.7594 10.4455 29.3733 10.309 28.8162" fill="white"/>
<path d="M11.7679 34.1947C11.3837 33.7727 11.2787 33.2367 11.5265 33.0089C11.7742 32.781 12.2886 32.9498 12.6729 33.376C13.0571 33.8022 13.16 34.3297 12.9122 34.5576C12.6645 34.7855 12.1501 34.6188 11.7679 34.1947Z" fill="white"/>
<path d="M9.42691 21.657C9.04852 22.671 8.83581 23.7398 8.79701 24.822C8.70252 26.9742 9.75655 28.082 9.75655 28.082C9.75655 28.082 10.756 26.8497 10.3865 24.725C9.96652 22.3512 9.42691 21.6465 9.42691 21.6465" fill="white"/>
<path d="M7.31309 23.3303C7.29209 22.7606 7.54825 22.2753 7.88629 22.2753C8.22434 22.2753 8.51619 22.7205 8.51619 23.2923C8.51619 23.8641 8.28523 24.3473 7.94928 24.3473C7.61334 24.3473 7.31939 23.9021 7.30469 23.3261" fill="white"/>
<path d="M7.24197 27.219C6.96481 26.719 6.97951 26.1767 7.27136 26.0121C7.56322 25.8475 8.02514 26.1282 8.3023 26.6303C8.57946 27.1325 8.56686 27.6706 8.2729 27.833C7.97895 27.9955 7.52332 27.7318 7.24197 27.219Z" fill="white"/>
<path d="M2.0363 12.449C1.81163 11.9173 1.88092 11.3813 2.18957 11.2484C2.49822 11.1155 2.92866 11.4404 3.15332 11.9721C3.37798 12.5038 3.3066 13.0271 2.99585 13.1685C2.6851 13.3099 2.26096 12.9786 2.0363 12.449Z" fill="white"/>
<path d="M4.73342 9.14685C4.3229 10.1516 4.07481 11.2158 3.99853 12.2992C3.83476 14.4472 4.8384 15.5908 4.8384 15.5908C4.8384 15.5908 5.88823 14.3944 5.57958 12.2591C5.23734 9.87058 4.72712 9.14685 4.72712 9.14685" fill="white"/>
<path d="M1.43555 13.0925C1.57892 14.1689 1.89444 15.2148 2.3699 16.19C3.29375 18.146 4.74042 18.6207 4.74042 18.6207C4.74042 18.6207 5.04697 17.0593 3.72208 15.3608C2.23762 13.4639 1.43555 13.0925 1.43555 13.0925Z" fill="white"/>
<path d="M16.5527 32.5256C16.6038 33.6095 16.8278 34.6782 17.2162 35.6906C17.9679 37.7078 19.3663 38.3176 19.3663 38.3176C19.3663 38.3176 19.8114 36.7899 18.6377 34.9838C17.3191 32.9645 16.5527 32.5256 16.5527 32.5256Z" fill="white"/>
<path d="M12.1172 35.3467C12.8355 36.1585 13.6792 36.8488 14.6158 37.3913C16.4656 38.4843 17.9333 38.0728 17.9333 38.0728C17.9333 38.0728 17.3202 36.5958 15.2751 35.9417C12.9864 35.2053 12.1256 35.3467 12.1256 35.3467" fill="white"/>
<path d="M14.8892 34.6779C14.6792 34.144 14.7506 33.6102 15.0635 33.4857C15.3763 33.3612 15.8005 33.6967 16.0167 34.22C16.233 34.7433 16.1511 35.2876 15.8425 35.4121C15.5338 35.5366 15.1034 35.2011 14.8892 34.6779Z" fill="white"/>
<path d="M7.37596 15.6393C6.96473 16.6479 6.71868 17.7167 6.64738 18.8043C6.48151 20.9523 7.48725 22.098 7.48725 22.098C7.48725 22.098 8.53708 20.8974 8.22213 18.7621C7.88408 16.3736 7.37176 15.6477 7.37176 15.6477" fill="white"/>
<path d="M4.92691 20.0914C4.71695 19.5661 4.77574 19.0364 5.08439 18.8951C5.39304 18.7537 5.82557 19.0892 6.05443 19.623C6.28329 20.1569 6.20771 20.6886 5.89906 20.8215C5.59041 20.9544 5.15997 20.6274 4.93321 20.0999" fill="white"/>
<path d="M3.02764 19.6926C3.2835 20.7493 3.70901 21.757 4.28744 22.6762C5.40236 24.514 6.89522 24.8431 6.89522 24.8431C6.89522 24.8431 7.03799 23.2564 5.54303 21.7098C3.8633 19.9775 3.02344 19.6926 3.02344 19.6926" fill="white"/>
<path d="M18.9648 38.9696C18.9648 38.9696 19.9097 39.4444 22.0933 40.8011C23.624 41.7506 25.9063 43.7952 25.9063 43.7952C25.7623 43.774 25.6153 43.7885 25.478 43.8374C25.3408 43.8863 25.2176 43.9682 25.119 44.0758C24.9097 44.3416 24.7813 44.6626 24.7494 45C24.7494 45 24.5143 43.063 22.0723 41.2758C20.1071 39.8347 18.9648 38.9696 18.9648 38.9696Z" fill="white"/>
<path d="M42.6925 4.06592C43.0161 5.10244 43.1699 6.1849 43.1481 7.27101C43.1271 9.42532 42.0185 10.4782 42.0185 10.4782C42.0185 10.4782 41.0841 9.19111 41.5734 7.10221C42.1193 4.75167 42.6925 4.07647 42.6925 4.07647" fill="white"/>
<path d="M39.6827 16.3293C39.7037 15.7575 39.4475 15.2743 39.1095 15.2743C38.7714 15.2743 38.4796 15.7195 38.4691 16.2955C38.4586 16.8716 38.7042 17.3505 39.0402 17.3505C39.3761 17.3505 39.6701 16.9074 39.6827 16.3314" fill="white"/>
<path d="M37.8046 28.3922C37.3379 29.3714 36.716 30.2679 35.9632 31.0466C34.4934 32.6122 32.9648 32.6228 32.9648 32.6228C32.9648 32.6228 33.1496 31.0382 34.9322 29.8397C36.929 28.4956 37.8046 28.3922 37.8046 28.3922Z" fill="white"/>
<path d="M32.8146 27.4448C32.9174 28.526 32.8465 29.6167 32.6046 30.6752C32.1364 32.7852 30.8409 33.5765 30.8409 33.5765C30.8409 33.5765 30.1879 32.1248 31.1034 30.1709C32.1217 27.9871 32.8209 27.4448 32.8209 27.4448" fill="white"/>
<path d="M34.6742 28.8162C34.8149 28.2592 34.6616 27.7401 34.3382 27.6621C34.0149 27.584 33.637 27.9617 33.4984 28.5229C33.3598 29.0842 33.5131 29.599 33.8364 29.6792C34.1598 29.7594 34.5377 29.3733 34.6763 28.8162" fill="white"/>
<path d="M33.2145 34.1947C33.5967 33.7727 33.7038 33.2367 33.456 33.0089C33.2082 32.781 32.6959 32.9498 32.3138 33.376C31.9316 33.8022 31.8225 34.3297 32.0702 34.5576C32.318 34.7855 32.8303 34.6188 33.2145 34.1947Z" fill="white"/>
<path d="M35.5704 21.657C35.95 22.6707 36.1627 23.7397 36.2003 24.822C36.2969 26.9742 35.2408 28.082 35.2408 28.082C35.2408 28.082 34.2434 26.8497 34.6235 24.725C35.0434 22.3512 35.5788 21.6465 35.5788 21.6465" fill="white"/>
<path d="M37.673 23.3303C37.6919 22.7606 37.4358 22.2753 37.1019 22.2753C36.7681 22.2753 36.472 22.7205 36.4594 23.2923C36.4468 23.8641 36.6967 24.3473 37.0285 24.3473C37.3602 24.3473 37.6583 23.9021 37.673 23.3261" fill="white"/>
<path d="M37.7379 27.219C38.0171 26.719 38.0066 26.1767 37.7127 26.0121C37.4187 25.8475 36.9547 26.1282 36.6796 26.6303C36.4046 27.1325 36.4151 27.6706 36.7069 27.833C36.9988 27.9955 37.4607 27.7233 37.7379 27.219Z" fill="white"/>
<path d="M42.9461 12.449C43.1708 11.9173 43.1036 11.3813 42.795 11.2484C42.4863 11.1155 42.0538 11.4404 41.8333 11.9721C41.6128 12.5038 41.6779 13.0271 41.9866 13.1685C42.2952 13.3099 42.7257 12.9765 42.9461 12.449Z" fill="white"/>
<path d="M40.2654 9.14685C40.6783 10.1508 40.9265 11.2154 41.0003 12.2992C41.1662 14.4472 40.1604 15.5908 40.1604 15.5908C40.1604 15.5908 39.1106 14.3944 39.4235 12.2591C39.7615 9.87058 40.2738 9.14685 40.2738 9.14685" fill="white"/>
<path d="M43.5625 13.0925C43.4204 14.1691 43.1048 15.2153 42.6282 16.19C41.7022 18.146 40.2577 18.6207 40.2577 18.6207C40.2577 18.6207 39.949 17.0593 41.276 15.3608C42.7605 13.4618 43.5625 13.0925 43.5625 13.0925Z" fill="white"/>
<path d="M28.4462 32.5257C28.3952 33.6094 28.172 34.6779 27.7848 35.6907C27.031 37.7078 25.6347 38.3176 25.6347 38.3176C25.6347 38.3176 25.1917 36.79 26.3654 34.9838C27.6798 32.9624 28.4462 32.5236 28.4462 32.5236" fill="white"/>
<path d="M32.8804 35.3467C32.1626 36.1583 31.3197 36.8486 30.3839 37.3913C28.5341 38.4843 27.0664 38.0728 27.0664 38.0728C27.0664 38.0728 27.6816 36.5958 29.7225 35.9417C32.0111 35.2053 32.872 35.3467 32.872 35.3467" fill="white"/>
<path d="M30.0929 34.6779C30.3028 34.144 30.2293 33.6102 29.9207 33.4857C29.612 33.3612 29.1837 33.6967 28.9675 34.22C28.7512 34.7433 28.831 35.2876 29.1438 35.4121C29.4567 35.5366 29.8766 35.2011 30.0929 34.6779Z" fill="white"/>
<path d="M37.6226 15.6393C38.0351 16.6475 38.2819 17.7165 38.3533 18.8043C38.5191 20.9523 37.5134 22.098 37.5134 22.098C37.5134 22.098 36.4636 20.8974 36.7743 18.7621C37.1145 16.3736 37.6268 15.6477 37.6268 15.6477" fill="white"/>
<path d="M40.0545 20.0915C40.2771 19.5661 40.2057 19.0365 39.9033 18.8951C39.601 18.7537 39.158 19.0892 38.9333 19.6146C38.7086 20.14 38.7821 20.6802 39.0908 20.8131C39.3994 20.946 39.8298 20.619 40.0545 20.0915Z" fill="white"/>
<path d="M41.9713 19.6926C41.7139 20.7488 41.2885 21.7563 40.7115 22.6762C39.5861 24.514 38.0995 24.8431 38.0995 24.8431C38.0995 24.8431 37.9546 23.2564 39.4538 21.7098C41.1335 19.9775 41.9629 19.6926 41.9629 19.6926" fill="white"/>
<path d="M26.0313 38.9696C26.0313 38.9696 25.0907 39.4444 22.9028 40.8011C21.3764 41.7506 19.0898 43.7952 19.0898 43.7952C19.2348 43.7742 19.3827 43.7888 19.5209 43.8377C19.6591 43.8865 19.7835 43.9682 19.8835 44.0758C20.0886 44.3438 20.2158 44.6637 20.251 45C20.251 45 20.4819 43.063 22.9238 41.2758C24.8912 39.8347 26.0313 38.9696 26.0313 38.9696Z" fill="white"/>
<path d="M11.215 5.1167C11.215 5.1167 13.6527 7.71411 14.8012 8.60453C15.9497 9.49495 18.8095 11.3117 19.727 12.4257C20.5191 13.448 21.1651 14.5765 21.6461 15.7785C21.8604 16.2974 22.1087 16.8014 22.3894 17.2872C21.7385 17.6261 21.1157 18.017 20.527 18.4561C19.9818 18.9444 19.4891 19.489 19.0572 20.0808C18.6913 20.0184 18.344 19.8742 18.041 19.6588C17.7836 19.4411 17.5492 19.1971 17.3418 18.9309C17.3418 18.9309 17.894 19.087 18.1376 19.1419C18.3811 19.1967 18.862 19.201 18.862 19.1081C18.862 19.0153 18.2132 18.7621 17.6232 18.4561C17.1369 18.1919 16.6931 17.8554 16.3067 17.4581C16.3067 17.4581 16.9723 17.724 17.3775 17.8105C17.7827 17.897 18.1082 18.0215 18.1544 17.9033C18.2006 17.7851 17.0626 17.399 16.3361 16.9601C15.6837 16.5575 15.1462 15.992 14.776 15.3186C14.776 15.3186 15.9224 16.036 16.418 16.2617C16.9135 16.4875 17.4825 16.7407 17.556 16.6837C17.6295 16.6268 17.6799 16.6289 17.6547 16.5318C17.6295 16.4347 17.3313 16.3377 16.9072 16.1309C16.483 15.9241 15.9875 15.4979 15.6474 15.2869C14.6626 14.6539 13.9676 13.3879 13.9676 13.3879C13.9676 13.3879 15.4059 14.4218 15.7083 14.5758C16.0106 14.7299 16.987 15.2299 17.0836 15.1033C17.1801 14.9767 17.0017 14.9345 16.9303 14.8607C16.8589 14.7868 15.1393 13.7698 14.6794 13.4153C13.8935 12.817 13.3254 11.9755 13.0627 11.0205C13.6404 11.5537 14.2444 12.0572 14.8726 12.5291C15.4185 12.8773 16.4914 13.5208 16.6363 13.4259C16.7812 13.3309 16.7182 13.3183 16.6132 13.2149C15.8075 12.792 15.0698 12.2492 14.4254 11.605C12.9829 10.1955 12.5903 9.03497 12.5903 9.03497C12.5903 9.03497 14.0852 10.3179 14.608 10.7441C15.1309 11.1703 16.0673 11.7991 16.2374 11.8497C16.4075 11.9004 16.5124 11.9468 16.588 11.8497C16.6056 11.8258 16.6183 11.7986 16.6254 11.7697C16.6325 11.7408 16.6339 11.7108 16.6294 11.6814C16.6249 11.652 16.6147 11.6237 16.5993 11.5983C16.5839 11.5729 16.5637 11.5508 16.5397 11.5332C16.4327 11.4319 15.5718 10.8285 14.9461 10.3052C14.3204 9.78191 13.195 8.81131 12.6365 8.08336C11.7021 6.85956 11.2129 5.1167 11.2129 5.1167" fill="white"/>
<path d="M23.4922 16.8462C23.4922 16.8462 23.7399 16.2934 23.9436 15.8229C24.1473 15.3523 24.5294 14.4366 24.8885 14.0041C25.5078 13.233 26.2217 12.5439 27.0133 11.9531C28.1492 11.0669 29.2033 10.1681 30.0704 9.51819C31.6914 8.30072 33.4467 5.98816 33.4467 5.98816C33.2338 6.92862 32.87 7.82799 32.3696 8.65098C31.6872 9.7313 30.3266 11.394 30.2573 11.4932C30.188 11.5923 30.0599 11.7632 30.1481 11.8202C30.1678 11.8373 30.1907 11.8504 30.2154 11.8586C30.2401 11.8668 30.2662 11.87 30.2921 11.868C30.3181 11.8661 30.3434 11.859 30.3666 11.8472C30.3898 11.8353 30.4105 11.819 30.4274 11.7991C30.5408 11.7042 30.8956 11.4045 31.2567 11.0395C31.6515 10.6365 32.2373 9.94441 32.2373 9.94441C32.1317 10.7138 31.8261 11.4416 31.3512 12.0544C30.8217 12.6823 30.2611 13.283 29.6715 13.8542C29.5749 13.9302 29.2894 14.2129 29.3649 14.3079C29.4405 14.4028 29.5623 14.3501 29.6925 14.2573C29.8227 14.1644 30.5114 13.5462 30.7255 13.3795C30.9397 13.2128 31.4982 12.6262 31.4982 12.6262C31.29 13.2213 30.9849 13.7774 30.5954 14.272C30.0699 14.8162 29.4956 15.3107 28.8799 15.749C28.7246 15.8651 28.3844 16.171 28.481 16.2238C28.5776 16.2765 28.649 16.2934 28.819 16.2048C28.9891 16.1162 29.8353 15.5444 29.8353 15.5444C29.6497 16.1742 29.2537 16.7204 28.7141 17.091C28.2184 17.4206 27.6933 17.7031 27.1456 17.935C27.0993 17.6248 26.9612 17.3358 26.7492 17.1055C26.5373 16.8752 26.2613 16.7143 25.9572 16.6437C24.8654 16.363 23.4922 16.8378 23.4922 16.8378" fill="white"/>
<path fill-rule="evenodd" clip-rule="evenodd" d="M20.6794 18.8339C18.5503 20.7646 17.6895 23.4949 17.6895 23.4949L18.4831 23.8874C18.5107 23.4852 18.6103 23.0914 18.7771 22.7248C18.9958 22.2468 19.2784 21.801 19.6169 21.3997C19.6169 21.3997 19.2516 22.2648 19.0626 22.8197C18.9428 23.1971 18.8673 23.5873 18.838 23.9823L19.6778 24.1427C19.7346 23.6825 19.8209 23.2265 19.9361 22.7775C20.0988 22.3481 20.3347 21.9504 20.6332 21.6023C20.6332 21.6023 20.3917 22.2922 20.2678 22.8303C20.1866 23.2958 20.1423 23.7671 20.1356 24.2398L21.0384 24.2946C21.0287 23.8792 21.0427 23.4635 21.0804 23.0497C21.1395 22.5766 21.2559 22.1125 21.4269 21.6677C21.4269 21.6677 21.4143 22.8493 21.4143 23.1573C21.4143 23.4654 21.4709 24.3094 21.4709 24.3094H22.399C22.399 24.3094 22.273 23.5414 22.2352 23.1616C22.1974 22.7818 22.2352 21.712 22.2352 21.712C22.4153 22.1945 22.5654 22.6878 22.6846 23.189C22.7181 23.3937 22.8693 24.2862 22.8693 24.2862L23.6903 24.2187C23.6376 23.8853 23.5675 23.555 23.4803 23.2291C23.3312 22.7839 23.0205 21.6191 23.0205 21.6191C23.3169 22.0742 23.5733 22.5542 23.7869 23.0539C23.9465 23.4823 24.1144 24.1638 24.1144 24.1638L24.9039 23.9739C24.9039 23.9739 24.7338 23.4169 24.5575 22.9062C24.4399 22.5665 23.9108 21.4968 23.9108 21.4968C24.2459 21.831 24.5354 22.2084 24.7716 22.6193C24.9671 23.0233 25.1171 23.4479 25.2188 23.8853L25.9852 23.6004C25.8787 23.0588 25.7066 22.5323 25.4729 22.0327C25.2923 21.6044 24.4231 20.6654 24.4231 20.6654C24.5595 20.5204 24.6812 20.3621 24.7863 20.1928C24.8552 20.0431 24.9134 19.8887 24.9606 19.7307C25.1401 19.7549 25.3217 19.7598 25.5023 19.7455C25.6536 19.7281 25.8024 19.6927 25.9453 19.64L26.8188 20.1675L26.5248 19.1378C26.7245 18.906 26.8296 18.6069 26.8191 18.3005C26.8085 17.9942 26.6832 17.7031 26.4681 17.4856C26.0104 16.9539 25.0824 16.7957 23.9653 17.0531C23.0079 17.2746 22.1071 17.5384 20.6794 18.8339ZM25.4595 18.2717C25.4429 18.3129 25.4347 18.357 25.4353 18.4014C25.435 18.4456 25.4434 18.4895 25.4601 18.5304C25.4767 18.5714 25.5013 18.6086 25.5323 18.64C25.5633 18.6713 25.6002 18.6962 25.6409 18.7132C25.6815 18.7302 25.7251 18.739 25.7691 18.739C25.8156 18.7427 25.8624 18.7366 25.9064 18.7213C25.9505 18.706 25.9909 18.6816 26.0252 18.6498C26.0594 18.618 26.0868 18.5794 26.1054 18.5365C26.1241 18.4935 26.1338 18.4472 26.1338 18.4003C26.1338 18.3535 26.1241 18.3071 26.1054 18.2642C26.0868 18.2212 26.0594 18.1826 26.0252 18.1508C25.9909 18.119 25.9505 18.0947 25.9064 18.0793C25.8624 18.064 25.8156 18.058 25.7691 18.0617C25.7249 18.0617 25.6812 18.0705 25.6404 18.0876C25.5996 18.1047 25.5626 18.1298 25.5316 18.1614C25.5005 18.193 25.476 18.2305 25.4595 18.2717Z" fill="white"/>
<path d="M25.6328 21.7878L25.8995 22.098C25.947 21.932 26.0103 21.7709 26.0884 21.6169C26.1464 21.5084 26.2169 21.4072 26.2984 21.3152C26.53 21.4061 26.7844 21.4209 27.0249 21.3574C27.5624 21.2329 28.2091 20.7054 28.2091 20.7054C27.868 20.6901 27.5262 20.7 27.1866 20.735C26.9219 20.7871 26.6705 20.8926 26.4475 21.0451C26.5649 20.8099 26.7056 20.5873 26.8674 20.3805C27.0564 20.1695 27.365 19.8551 27.365 19.8551C27.5343 20.0753 27.7834 20.2194 28.0579 20.256C28.4457 20.2516 28.8276 20.1593 29.1749 19.9859C28.9884 19.798 28.7472 19.6746 28.4863 19.6335C28.208 19.59 27.9247 19.59 27.6464 19.6335C27.7702 19.5181 27.9069 19.4176 28.0537 19.3339C28.2406 19.239 28.4926 19.1461 28.4926 19.1461C28.5781 19.2759 28.6904 19.3857 28.822 19.468C28.9535 19.5503 29.1011 19.6031 29.2547 19.623C29.6347 19.6765 30.0206 19.6715 30.399 19.6082C30.2459 19.4033 30.0437 19.2407 29.8111 19.1356C29.5443 19.0452 29.2669 18.9899 28.986 18.971C28.986 18.971 29.3093 18.8381 29.4668 18.7959C29.6243 18.7537 29.8636 18.7283 29.8636 18.7283C29.9467 18.8609 30.0591 18.9725 30.192 19.0545C30.3249 19.1364 30.4748 19.1866 30.63 19.201C30.9744 19.2165 31.3192 19.1795 31.6525 19.0913C31.4536 18.913 31.2197 18.7786 30.966 18.6967C30.7511 18.6288 30.5292 18.5856 30.3046 18.568L31.22 18.2684L30.0778 18.3633C30.2721 18.2169 30.4533 18.0538 30.6195 17.8759C30.8074 17.6545 30.9578 17.4036 31.0646 17.1332C31.0646 17.1332 30.3214 17.4433 30.0274 17.7662C29.8302 17.9863 29.6444 18.2166 29.471 18.4562L29.1393 18.6186C29.2891 18.4439 29.42 18.2536 29.5298 18.051C29.6096 17.84 29.7398 17.4391 29.7398 17.4391C29.3443 17.5306 28.9947 17.762 28.755 18.0911C28.524 18.4414 28.3099 18.8233 28.1083 18.9351C27.9566 19.0464 27.816 19.1722 27.6884 19.3107C27.6884 19.3107 27.8228 19.028 27.9571 18.6608C28.038 18.4339 28.0868 18.1967 28.102 17.9561C28.102 17.9561 27.3104 18.3781 27.1215 18.8001C26.9852 19.073 26.9516 19.3862 27.027 19.6821C27.0359 19.7226 27.0546 19.7603 27.0816 19.7918C27.0816 19.7918 26.985 19.9099 26.7183 20.2897C26.4517 20.6695 26.2753 20.9227 26.2753 20.9227C26.3181 20.7331 26.2881 20.5341 26.1913 20.3657C26.0802 20.1423 25.9139 19.9513 25.7084 19.8108C25.6449 20.0966 25.6406 20.3925 25.6958 20.6801C25.7458 20.8842 25.8636 21.065 26.0296 21.1928L25.6328 21.7878Z" fill="white"/>
<path d="M19.1637 27.7022H19.4703V25.3812H19.2435C19.1511 25.7378 18.9874 25.8032 18.6367 25.8264V26.0585H19.1637V27.7022Z" fill="white"/>
<path d="M20.7535 26.1641C20.749 26.0993 20.7576 26.0342 20.7788 25.9729C20.8 25.9115 20.8335 25.8551 20.8771 25.8072C20.9207 25.7592 20.9735 25.7207 21.0324 25.6939C21.0913 25.6671 21.155 25.6526 21.2197 25.6513C21.2836 25.6518 21.3468 25.6653 21.4054 25.6912C21.464 25.717 21.5167 25.7546 21.5603 25.8016C21.6039 25.8486 21.6376 25.904 21.6591 25.9646C21.6807 26.0251 21.6898 26.0894 21.6858 26.1535C21.6865 26.215 21.6751 26.2761 21.6523 26.3332C21.6295 26.3903 21.5958 26.4423 21.553 26.4863C21.5102 26.5303 21.4592 26.5654 21.4029 26.5895C21.3466 26.6137 21.2861 26.6265 21.2249 26.6272C21.1637 26.6279 21.1029 26.6165 21.0461 26.5936C20.9893 26.5707 20.9375 26.5368 20.8938 26.4937C20.85 26.4507 20.8151 26.3995 20.791 26.3429C20.767 26.2864 20.7542 26.2256 20.7535 26.1641ZM20.4533 27.1368C20.4568 27.2243 20.4775 27.3102 20.5144 27.3896C20.5512 27.4689 20.6034 27.5401 20.6679 27.599C20.7323 27.6579 20.8078 27.7034 20.89 27.7327C20.9721 27.762 21.0592 27.7746 21.1462 27.7698C21.8685 27.7698 22.0448 27.0629 22.0448 26.4721C22.0448 25.9341 21.8349 25.3897 21.205 25.3897C21.1014 25.3885 20.9986 25.4084 20.9028 25.4481C20.8071 25.4879 20.7203 25.5467 20.6477 25.621C20.5752 25.6953 20.5183 25.7836 20.4806 25.8805C20.4428 25.9775 20.425 26.0811 20.4281 26.1852C20.4273 26.3346 20.4719 26.4808 20.556 26.6041C20.6401 26.7274 20.7596 26.822 20.8986 26.8752C21.0376 26.9284 21.1895 26.9377 21.3339 26.9019C21.4783 26.8661 21.6084 26.7868 21.7068 26.6747C21.6711 27.0207 21.6123 27.5039 21.1651 27.5039C21.113 27.5101 21.0602 27.5053 21.0101 27.4898C20.9601 27.4742 20.9137 27.4484 20.8742 27.4138C20.8347 27.3792 20.8027 27.3367 20.7805 27.289C20.7583 27.2413 20.7462 27.1894 20.7451 27.1368H20.4533Z" fill="white"/>
<path d="M23.8592 27.0081C23.8641 27.0719 23.8559 27.1361 23.8352 27.1967C23.8146 27.2573 23.7818 27.313 23.7389 27.3604C23.6961 27.4078 23.6441 27.4459 23.586 27.4724C23.528 27.4989 23.4652 27.5132 23.4015 27.5145C23.337 27.5138 23.2733 27.4998 23.2143 27.4735C23.1553 27.4472 23.1023 27.4091 23.0584 27.3615C23.0146 27.3139 22.9809 27.2578 22.9594 27.1967C22.9379 27.1356 22.929 27.0707 22.9333 27.006C22.9295 26.9419 22.9389 26.8778 22.961 26.8176C22.983 26.7574 23.0171 26.7024 23.0613 26.656C23.1054 26.6097 23.1586 26.573 23.2175 26.5482C23.2764 26.5235 23.3398 26.5112 23.4036 26.5122C23.4666 26.5123 23.529 26.5255 23.5867 26.551C23.6445 26.5764 23.6964 26.6136 23.7392 26.6601C23.7819 26.7067 23.8147 26.7616 23.8353 26.8215C23.856 26.8814 23.8641 26.9449 23.8592 27.0081ZM24.1658 26.0311C24.1604 25.9422 24.1376 25.8552 24.0987 25.7752C24.0598 25.6952 24.0054 25.6237 23.9389 25.5649C23.8723 25.506 23.7949 25.461 23.7109 25.4324C23.627 25.4038 23.5382 25.3921 23.4498 25.3981C22.7779 25.3981 22.5742 26.1303 22.5742 26.6768C22.5742 27.2233 22.7716 27.7761 23.4036 27.7761C23.5073 27.7773 23.6101 27.7574 23.7059 27.7175C23.8017 27.6776 23.8884 27.6186 23.9609 27.544C24.0333 27.4694 24.0899 27.3809 24.1273 27.2837C24.1647 27.1865 24.1821 27.0827 24.1784 26.9785C24.1798 26.8817 24.1618 26.7856 24.1256 26.6959C24.0894 26.6061 24.0356 26.5246 23.9675 26.4562C23.8994 26.3877 23.8183 26.3336 23.729 26.2973C23.6397 26.2609 23.544 26.2428 23.4477 26.2443C23.3434 26.2425 23.2401 26.2645 23.1455 26.3088C23.0509 26.353 22.9676 26.4182 22.9018 26.4996C22.9375 26.1493 22.9984 25.6682 23.4456 25.6682C23.4978 25.6614 23.5508 25.6657 23.6012 25.681C23.6515 25.6962 23.6981 25.7221 23.7378 25.7568C23.7775 25.7915 23.8094 25.8343 23.8314 25.8823C23.8535 25.9303 23.8651 25.9825 23.8655 26.0354L24.1658 26.0311Z" fill="white"/>
<path d="M25.4813 25.6555C25.8802 25.6555 25.9432 26.1724 25.9432 26.5754C25.9432 26.9784 25.8802 27.4912 25.4813 27.4912C25.0823 27.4912 25.0193 26.9721 25.0193 26.5754C25.0193 26.1787 25.0802 25.6555 25.4813 25.6555ZM24.7422 26.586C24.7422 27.1303 24.9522 27.7802 25.4834 27.7802C26.0566 27.7802 26.2225 27.1303 26.2225 26.586C26.2225 26.0416 26.0566 25.3854 25.4834 25.3854C24.9438 25.3854 24.7422 26.0353 24.7422 26.586Z" fill="white"/>
</g>
<defs>
<clipPath id="clip0_1889_637">
<rect width="45" height="45" fill="white"/>
</clipPath>
</defs>
</svg>
