<svg id="Layer_1" data-name="Layer 1" xmlns="http://www.w3.org/2000/svg" xmlns:xlink="http://www.w3.org/1999/xlink" viewBox="0 0 157 47"><defs><clipPath id="clip-path"><rect x="1" y="1" width="45" height="45" style="fill:none"/></clipPath></defs><rect width="157" height="47" style="fill:#31576f"/><path d="M61.52,23.65a10.36,10.36,0,0,1,1.94-6.59,6.29,6.29,0,0,1,5.19-2.47,5.72,5.72,0,0,1,2.64.49,5.8,5.8,0,0,1,2.14,1.62l.19-1.79h3.6V32.1A7.1,7.1,0,0,1,75,37.61a8.24,8.24,0,0,1-5.87,2,9.55,9.55,0,0,1-3.84-.81,6.84,6.84,0,0,1-2.83-2.12l1.89-2.39a5.78,5.78,0,0,0,4.55,2.18,4.46,4.46,0,0,0,3.14-1.08,4.11,4.11,0,0,0,1.15-3.15v-1.2A5.91,5.91,0,0,1,68.61,33a6.28,6.28,0,0,1-2.86-.62,6.43,6.43,0,0,1-2.26-1.85A10.69,10.69,0,0,1,61.52,23.65Zm4,.34a7.19,7.19,0,0,0,1.09,4.21,3.48,3.48,0,0,0,1.32,1.15,3.57,3.57,0,0,0,1.72.38,3.94,3.94,0,0,0,2.1-.51,3.86,3.86,0,0,0,1.49-1.56v-7.8a3.8,3.8,0,0,0-3.55-2,3.55,3.55,0,0,0-3.08,1.55A8,8,0,0,0,65.5,24Zm15.1-.37a10.27,10.27,0,0,1,1-4.69,7.49,7.49,0,0,1,2.92-3.21,8.13,8.13,0,0,1,4.31-1.13A7.8,7.8,0,0,1,94.7,16.9,9.05,9.05,0,0,1,97.14,23V24a10.44,10.44,0,0,1-1,4.69,7.37,7.37,0,0,1-2.89,3.19A8.3,8.3,0,0,1,88.89,33a7.76,7.76,0,0,1-6-2.49,9.55,9.55,0,0,1-2.25-6.67Zm4,.34a7.23,7.23,0,0,0,1.14,4.29,3.68,3.68,0,0,0,3.16,1.54,3.53,3.53,0,0,0,1.78-.38A3.47,3.47,0,0,0,92,28.22a7.77,7.77,0,0,0,1.14-4.6A7,7,0,0,0,92,19.35a3.91,3.91,0,0,0-1.37-1.15,4,4,0,0,0-1.75-.42,3.91,3.91,0,0,0-1.75.41,3.76,3.76,0,0,0-1.38,1.15A7.69,7.69,0,0,0,84.59,24Zm22,3.64,3.77-12.69h4.13l-6.17,17.73h-3.47L98.58,14.91h4.15Zm10.14.85a2.27,2.27,0,0,1,.93.14A2.09,2.09,0,0,1,119,30.65a2.34,2.34,0,0,1-.61,1.57,2.75,2.75,0,0,1-3.43,0,2.25,2.25,0,0,1-.47-.71,2.06,2.06,0,0,1-.15-.85,2.23,2.23,0,0,1,.14-.85,2.3,2.3,0,0,1,.47-.72,2.17,2.17,0,0,1,.79-.5A2.22,2.22,0,0,1,116.69,28.45Z" style="fill:#fff"/><path d="M130.93,29.79a3.64,3.64,0,0,0,2.48-.87,2.81,2.81,0,0,0,.75-1,2.72,2.72,0,0,0,.3-1.18h3.77a5.79,5.79,0,0,1-1,3.09,6.9,6.9,0,0,1-2.64,2.27A7.94,7.94,0,0,1,131,33a7.6,7.6,0,0,1-5.93-2.41,9.53,9.53,0,0,1-2.19-6.65V23.5A9.36,9.36,0,0,1,125,17a7.53,7.53,0,0,1,2.69-1.88,8.64,8.64,0,0,1,8.41,1.29,6.59,6.59,0,0,1,1.56,2.2,6.42,6.42,0,0,1,.54,2.63h-3.77a3.64,3.64,0,0,0-1.05-2.51,3.38,3.38,0,0,0-1.14-.75,4.24,4.24,0,0,0-3,.1,3.56,3.56,0,0,0-1.32,1.08,7.05,7.05,0,0,0-1.07,4.24v.64a7.25,7.25,0,0,0,1,4.31,3.6,3.6,0,0,0,1.33,1.09A3.66,3.66,0,0,0,130.93,29.79Zm16.55-2.85,3.62-12h4.27l-7.08,20.42q-1.64,4.47-5.53,4.47a7,7,0,0,1-1.93-.29V36.43l.76,0a3.85,3.85,0,0,0,2.27-.56,3.57,3.57,0,0,0,1.22-1.83l.58-1.53L139.4,14.91h4.31Z" style="fill:#ffad2d"/><g style="clip-path:url(#clip-path)"><path d="M36.58,3.06s.76,10.62-3.18,18.39c-4.2,8.29-9.86,11.25-9.86,11.25l0,0,0,0s-5.66-3-9.87-11.25C9.66,13.68,10.41,3.06,10.41,3.06a21.24,21.24,0,0,0,5.77,2.57,33,33,0,0,0,7.14.87h.37a32.79,32.79,0,0,0,7.12-.87,21.24,21.24,0,0,0,5.77-2.57M37.6,1,36,2.08a20.38,20.38,0,0,1-5.4,2.41,31.71,31.71,0,0,1-6.86.84h-.37a31.73,31.73,0,0,1-6.87-.84A20.71,20.71,0,0,1,11,2.08L9.4,1,9.26,3c0,.45-.74,11,3.3,19,4.33,8.53,10.11,11.63,10.36,11.76h0l0,0,.47.23L24,33.8l.05,0h0l0,0c.24-.13,6-3.23,10.36-11.76,4-8,3.33-18.57,3.3-19Z" style="fill:#fff"/><path d="M3.31,5.07a9.91,9.91,0,0,0-.45,3.2A4.6,4.6,0,0,0,4,11.48,4.33,4.33,0,0,0,4.43,8.1,8,8,0,0,0,3.31,5.07Z" style="fill:#fff"/><path d="M6.3,17.33c0-.57.23-1.06.57-1.06s.63.45.65,1-.25,1.05-.58,1.05-.63-.44-.64-1" style="fill:#fff"/><path d="M8.19,29.39A10,10,0,0,0,10,32.05a4.55,4.55,0,0,0,3,1.57,4.31,4.31,0,0,0-2-2.78A8.16,8.16,0,0,0,8.19,29.39Z" style="fill:#fff"/><path d="M13.19,28.44a9.8,9.8,0,0,0,.21,3.24,4.55,4.55,0,0,0,1.76,2.9,4.34,4.34,0,0,0-.26-3.41,8.13,8.13,0,0,0-1.72-2.73" style="fill:#fff"/><path d="M11.31,29.82c-.14-.56,0-1.08.34-1.16s.7.3.84.86,0,1.08-.34,1.16-.7-.31-.84-.86" style="fill:#fff"/><path d="M12.77,35.19c-.39-.42-.49-.95-.24-1.18s.76-.06,1.14.37.49.95.24,1.18S13.15,35.62,12.77,35.19Z" style="fill:#fff"/><path d="M10.43,22.66a10,10,0,0,0-.63,3.16,4.57,4.57,0,0,0,1,3.26,4.33,4.33,0,0,0,.63-3.35,7.89,7.89,0,0,0-1-3.08" style="fill:#fff"/><path d="M8.31,24.33c0-.57.24-1,.58-1s.63.44.63,1S9.29,25.35,9,25.35s-.63-.45-.65-1" style="fill:#fff"/><path d="M8.24,28.22c-.28-.5-.26-1,0-1.21s.76.12,1,.62.27,1,0,1.2S8.52,28.73,8.24,28.22Z" style="fill:#fff"/><path d="M3,13.45c-.23-.53-.16-1.07.15-1.2s.74.19,1,.72S4.31,14,4,14.17,3.26,14,3,13.45Z" style="fill:#fff"/><path d="M5.73,10.15A10,10,0,0,0,5,13.3a4.59,4.59,0,0,0,.84,3.29,4.29,4.29,0,0,0,.74-3.33,8,8,0,0,0-.85-3.11" style="fill:#fff"/><path d="M2.44,14.09a9.92,9.92,0,0,0,.93,3.1,4.5,4.5,0,0,0,2.37,2.43,4.31,4.31,0,0,0-1-3.26A8,8,0,0,0,2.44,14.09Z" style="fill:#fff"/><path d="M17.55,33.53a10.09,10.09,0,0,0,.67,3.16,4.59,4.59,0,0,0,2.15,2.63A4.35,4.35,0,0,0,19.64,36,7.88,7.88,0,0,0,17.55,33.53Z" style="fill:#fff"/><path d="M13.12,36.35a10,10,0,0,0,2.5,2,4.56,4.56,0,0,0,3.31.68,4.27,4.27,0,0,0-2.65-2.13,8.07,8.07,0,0,0-3.15-.59" style="fill:#fff"/><path d="M15.89,35.68c-.21-.54-.14-1.07.17-1.19s.74.21,1,.73.13,1.07-.18,1.19S16.1,36.2,15.89,35.68Z" style="fill:#fff"/><path d="M8.38,16.64a9.89,9.89,0,0,0-.73,3.16,4.63,4.63,0,0,0,.84,3.3,4.28,4.28,0,0,0,.73-3.34,8,8,0,0,0-.85-3.11" style="fill:#fff"/><path d="M5.93,21.09c-.21-.52-.15-1.05.15-1.19s.75.19,1,.72.16,1.07-.15,1.2-.74-.19-1-.72" style="fill:#fff"/><path d="M4,20.69a9.86,9.86,0,0,0,1.26,3A4.55,4.55,0,0,0,7.9,25.84a4.32,4.32,0,0,0-1.36-3.13,8.14,8.14,0,0,0-2.52-2" style="fill:#fff"/><path d="M20,40s.95.47,3.13,1.83a36.75,36.75,0,0,1,3.82,3,.79.79,0,0,0-.43,0,.88.88,0,0,0-.36.24,1.7,1.7,0,0,0-.37.92,6.09,6.09,0,0,0-2.68-3.72Z" style="fill:#fff"/><path d="M43.69,5.07a9.88,9.88,0,0,1,.46,3.2A4.6,4.6,0,0,1,43,11.48a4.31,4.31,0,0,1-.45-3.38,8,8,0,0,1,1.12-3" style="fill:#fff"/><path d="M40.68,17.33c0-.57-.23-1.06-.57-1.06s-.63.45-.64,1,.23,1.05.57,1.05.63-.44.64-1" style="fill:#fff"/><path d="M38.8,29.39A9.74,9.74,0,0,1,37,32.05a4.55,4.55,0,0,1-3,1.57,4.31,4.31,0,0,1,2-2.78A8.18,8.18,0,0,1,38.8,29.39Z" style="fill:#fff"/><path d="M33.81,28.44a9.8,9.8,0,0,1-.21,3.24,4.55,4.55,0,0,1-1.76,2.9,4.34,4.34,0,0,1,.26-3.41,8.13,8.13,0,0,1,1.72-2.73" style="fill:#fff"/><path d="M35.67,29.82c.14-.56,0-1.08-.33-1.16s-.7.3-.84.86,0,1.08.34,1.16.7-.31.84-.86" style="fill:#fff"/><path d="M34.21,35.19c.39-.42.49-.95.25-1.18s-.76-.06-1.15.37-.49.95-.24,1.18S33.83,35.62,34.21,35.19Z" style="fill:#fff"/><path d="M36.57,22.66a10,10,0,0,1,.63,3.16,4.57,4.57,0,0,1-1,3.26,4.3,4.3,0,0,1-.62-3.35,7.89,7.89,0,0,1,1-3.08" style="fill:#fff"/><path d="M38.67,24.33c0-.57-.23-1-.57-1s-.63.44-.64,1,.24,1.06.57,1.06.63-.45.64-1" style="fill:#fff"/><path d="M38.74,28.22c.28-.5.27-1,0-1.21s-.76.12-1,.62-.26,1,0,1.2S38.46,28.72,38.74,28.22Z" style="fill:#fff"/><path d="M44,13.45c.22-.53.15-1.07-.16-1.2s-.74.19-1,.72-.15,1.06.16,1.2S43.73,14,44,13.45Z" style="fill:#fff"/><path d="M41.27,10.15A10,10,0,0,1,42,13.3a4.59,4.59,0,0,1-.84,3.29,4.29,4.29,0,0,1-.74-3.33,8,8,0,0,1,.85-3.11" style="fill:#fff"/><path d="M44.56,14.09a10.11,10.11,0,0,1-.93,3.1,4.54,4.54,0,0,1-2.37,2.43,4.31,4.31,0,0,1,1-3.26A8,8,0,0,1,44.56,14.09Z" style="fill:#fff"/><path d="M29.45,33.53a10.09,10.09,0,0,1-.67,3.16,4.59,4.59,0,0,1-2.15,2.63A4.33,4.33,0,0,1,27.37,36a8,8,0,0,1,2.08-2.46" style="fill:#fff"/><path d="M33.88,36.35a10,10,0,0,1-2.5,2,4.56,4.56,0,0,1-3.31.68,4.27,4.27,0,0,1,2.65-2.13,8.07,8.07,0,0,1,3.15-.59" style="fill:#fff"/><path d="M31.09,35.68c.21-.54.14-1.07-.17-1.19s-.74.21-1,.73-.14,1.07.17,1.19S30.88,36.2,31.09,35.68Z" style="fill:#fff"/><path d="M38.62,16.64a9.89,9.89,0,0,1,.73,3.16,4.63,4.63,0,0,1-.84,3.3,4.3,4.3,0,0,1-.74-3.34,7.86,7.86,0,0,1,.86-3.11" style="fill:#fff"/><path d="M41.05,21.09c.23-.52.16-1.05-.15-1.19s-.74.19-1,.71-.15,1.07.16,1.2S40.83,21.62,41.05,21.09Z" style="fill:#fff"/><path d="M43,20.69a10.11,10.11,0,0,1-1.26,3,4.58,4.58,0,0,1-2.61,2.16,4.28,4.28,0,0,1,1.35-3.13,8.21,8.21,0,0,1,2.51-2" style="fill:#fff"/><path d="M27,40s-.94.47-3.13,1.83a37.39,37.39,0,0,0-3.81,3,.8.8,0,0,1,.43,0,.88.88,0,0,1,.36.24,1.7,1.7,0,0,1,.37.92,6,6,0,0,1,2.67-3.72C25.89,40.83,27,40,27,40Z" style="fill:#fff"/><path d="M12.22,6.12A48.49,48.49,0,0,0,15.8,9.6c1.15.89,4,2.71,4.93,3.83a13.93,13.93,0,0,1,1.92,3.35,12.41,12.41,0,0,0,.74,1.51,13.83,13.83,0,0,0-1.86,1.17,9.83,9.83,0,0,0-1.47,1.62,2.48,2.48,0,0,1-1-.42,4.84,4.84,0,0,1-.7-.73s.55.16.8.21.72.06.72,0a6.63,6.63,0,0,0-1.24-.65,5.55,5.55,0,0,1-1.31-1,9.31,9.31,0,0,0,1.07.35c.4.09.73.21.77.09A20.26,20.26,0,0,0,17.34,18a4.38,4.38,0,0,1-1.56-1.64s1.14.72,1.64.94a3.46,3.46,0,0,0,1.14.42c.07-.05.12-.05.09-.15s-.32-.19-.74-.4-.92-.63-1.26-.84A6.06,6.06,0,0,1,15,14.39s1.44,1,1.74,1.19,1.28.65,1.37.52-.08-.17-.15-.24-1.79-1.09-2.25-1.44A4.54,4.54,0,0,1,14.06,12c.58.53,1.18,1,1.81,1.51a6,6,0,0,0,1.77.9c.14-.1.08-.11,0-.22a8.79,8.79,0,0,1-2.18-1.61A7.23,7.23,0,0,1,13.59,10s1.5,1.29,2,1.71a10.69,10.69,0,0,0,1.63,1.11c.17.05.27.1.35,0a.2.2,0,0,0,0-.08v-.09l0-.08-.06-.07c-.11-.1-1-.7-1.59-1.22a17.26,17.26,0,0,1-2.31-2.23,10.14,10.14,0,0,1-1.43-3" style="fill:#fff"/><path d="M24.49,17.85s.25-.56.45-1A9.59,9.59,0,0,1,25.89,15,11.76,11.76,0,0,1,28,13c1.14-.88,2.19-1.78,3.06-2.43A22.17,22.17,0,0,0,34.45,7a9.08,9.08,0,0,1-1.08,2.66c-.68,1.08-2,2.74-2.11,2.84s-.2.27-.11.33l.07,0h.07l.08,0,.06,0c.11-.1.47-.4.83-.76s1-1.1,1-1.1a4.41,4.41,0,0,1-.89,2.11,23.85,23.85,0,0,1-1.68,1.8c-.1.08-.38.36-.31.46s.2,0,.33-.05.82-.71,1-.88.77-.75.77-.75a6,6,0,0,1-.9,1.64,12.11,12.11,0,0,1-1.72,1.48c-.16.12-.5.42-.4.47s.17.07.34,0,1-.66,1-.66a2.89,2.89,0,0,1-1.13,1.55,9.38,9.38,0,0,1-1.56.84A1.6,1.6,0,0,0,27,17.64a5.08,5.08,0,0,0-2.47.2" style="fill:#fff"/><path d="M21.68,19.83a11.88,11.88,0,0,0-3,4.66l.79.4a3.43,3.43,0,0,1,.3-1.17,5.9,5.9,0,0,1,.84-1.32s-.37.86-.56,1.42A5.16,5.16,0,0,0,19.84,25l.84.16a9.06,9.06,0,0,1,.26-1.36,3.89,3.89,0,0,1,.69-1.18s-.24.69-.36,1.23a8.4,8.4,0,0,0-.13,1.41l.9.05a10.28,10.28,0,0,1,0-1.24,6,6,0,0,1,.35-1.38s0,1.18,0,1.49.06,1.15.06,1.15h.93s-.13-.77-.16-1.15,0-1.45,0-1.45a10.93,10.93,0,0,1,.44,1.48c0,.2.19,1.1.19,1.1l.82-.07a8.73,8.73,0,0,0-.21-1c-.15-.45-.46-1.61-.46-1.61a9.36,9.36,0,0,1,.77,1.43c.16.43.32,1.11.32,1.11L25.9,25s-.17-.55-.34-1.06c-.12-.34-.65-1.41-.65-1.41a4.91,4.91,0,0,1,.86,1.12,5.64,5.64,0,0,1,.45,1.27L27,24.6A6.73,6.73,0,0,0,26.47,23a7.89,7.89,0,0,0-1-1.36,3.41,3.41,0,0,0,.37-.48,3.61,3.61,0,0,0,.17-.46,3.25,3.25,0,0,0,.54,0,2.46,2.46,0,0,0,.45-.11l.87.53-.3-1a1.22,1.22,0,0,0,.3-.84,1.2,1.2,0,0,0-.35-.81,2.53,2.53,0,0,0-2.5-.44A6.42,6.42,0,0,0,21.68,19.83Zm4.78-.56a.2.2,0,0,0,0,.13.19.19,0,0,0,0,.13.41.41,0,0,0,.07.11.26.26,0,0,0,.11.07.31.31,0,0,0,.13,0,.34.34,0,0,0,.14,0,.37.37,0,0,0,.12-.07.44.44,0,0,0,.08-.11.5.5,0,0,0,0-.28.44.44,0,0,0-.08-.11.37.37,0,0,0-.12-.07.34.34,0,0,0-.14,0,.28.28,0,0,0-.13,0,.26.26,0,0,0-.11.07A.41.41,0,0,0,26.46,19.27Z" style="fill:#fff;fill-rule:evenodd"/><path d="M26.63,22.79l.27.31a2.53,2.53,0,0,1,.19-.48,1.61,1.61,0,0,1,.21-.3,1.18,1.18,0,0,0,.72,0,3.89,3.89,0,0,0,1.19-.65,5.8,5.8,0,0,0-1,0,1.8,1.8,0,0,0-.74.31,3.59,3.59,0,0,1,.42-.67l.49-.52a1.07,1.07,0,0,0,.7.4A2.63,2.63,0,0,0,30.17,21a1.19,1.19,0,0,0-.68-.36,3,3,0,0,0-.84,0,3,3,0,0,1,.4-.3c.19-.09.44-.18.44-.18a1.12,1.12,0,0,0,.33.32,1.11,1.11,0,0,0,.43.15,3.7,3.7,0,0,0,1.15,0,1.42,1.42,0,0,0-.59-.47A3.33,3.33,0,0,0,30,20s.32-.13.48-.17a2.11,2.11,0,0,1,.39-.07,1.12,1.12,0,0,0,.33.32.86.86,0,0,0,.44.15,3.2,3.2,0,0,0,1-.11A1.86,1.86,0,0,0,32,19.7a3.05,3.05,0,0,0-.67-.13l.92-.3-1.14.09a4.88,4.88,0,0,0,.54-.48,2.59,2.59,0,0,0,.44-.75,3.62,3.62,0,0,0-1,.64,7.34,7.34,0,0,0-.56.69l-.33.16a3.6,3.6,0,0,0,.39-.57c.08-.21.21-.61.21-.61a1.67,1.67,0,0,0-1,.65,3.25,3.25,0,0,1-.64.85,2.93,2.93,0,0,0-.42.37s.13-.28.27-.65a2.42,2.42,0,0,0,.14-.7s-.79.42-1,.84a1.28,1.28,0,0,0-.09.88.22.22,0,0,0,0,.11l-.36.5-.44.63a.75.75,0,0,0-.09-.55,1.45,1.45,0,0,0-.48-.56,2,2,0,0,0,0,.87.88.88,0,0,0,.33.51Z" style="fill:#fff"/><path d="M20.16,28.7h.31V26.38h-.23c-.09.36-.25.42-.6.45v.23h.52Z" style="fill:#fff"/><path d="M21.75,27.16a.63.63,0,0,1,0-.19.39.39,0,0,1,.1-.16.44.44,0,0,1,.15-.12.47.47,0,0,1,.38,0,.53.53,0,0,1,.15.11.54.54,0,0,1,.1.16.68.68,0,0,1,0,.19.34.34,0,0,1,0,.18.39.39,0,0,1-.1.16.4.4,0,0,1-.15.1.48.48,0,0,1-.18,0,.33.33,0,0,1-.17,0,.39.39,0,0,1-.16-.1.56.56,0,0,1-.1-.15A.48.48,0,0,1,21.75,27.16Zm-.3,1a1.14,1.14,0,0,0,.06.25.65.65,0,0,0,.16.21.61.61,0,0,0,.22.13.75.75,0,0,0,.26,0c.72,0,.89-.71.89-1.3s-.21-1.08-.84-1.08a.8.8,0,0,0-.3.06.85.85,0,0,0-.25.17.9.9,0,0,0-.17.26.65.65,0,0,0-.05.31.69.69,0,0,0,.13.41.72.72,0,0,0,.34.28.7.7,0,0,0,.43,0,.66.66,0,0,0,.38-.23c0,.35-.1.83-.54.83a.29.29,0,0,1-.16,0,.39.39,0,0,1-.14-.08.27.27,0,0,1-.09-.12.4.4,0,0,1,0-.15Z" style="fill:#fff"/><path d="M24.86,28a.62.62,0,0,1,0,.19.86.86,0,0,1-.1.16.39.39,0,0,1-.15.11.41.41,0,0,1-.19,0,.43.43,0,0,1-.19,0A.5.5,0,0,1,24,28.2a.63.63,0,0,1,0-.19.58.58,0,0,1,0-.19.44.44,0,0,1,.1-.16.42.42,0,0,1,.16-.11.39.39,0,0,1,.18,0,.58.58,0,0,1,.19,0,.53.53,0,0,1,.15.11.86.86,0,0,1,.1.16A.58.58,0,0,1,24.86,28Zm.31-1a.72.72,0,0,0-.07-.25.69.69,0,0,0-.16-.22,1,1,0,0,0-.23-.13.57.57,0,0,0-.26,0c-.67,0-.88.73-.88,1.28s.2,1.1.83,1.1a.81.81,0,0,0,.31-.06.72.72,0,0,0,.25-.18.78.78,0,0,0,.17-.26,1,1,0,0,0,.05-.3.87.87,0,0,0-.05-.28.67.67,0,0,0-.16-.24.63.63,0,0,0-.24-.16.71.71,0,0,0-.28-.06.6.6,0,0,0-.3.07.67.67,0,0,0-.25.19c0-.35.1-.83.55-.83a.38.38,0,0,1,.15,0,.39.39,0,0,1,.14.08.27.27,0,0,1,.09.12.42.42,0,0,1,0,.16Z" style="fill:#fff"/><path d="M26.48,26.66c.4,0,.46.51.46.92s-.06.91-.46.91S26,28,26,27.58,26.08,26.66,26.48,26.66Zm-.74.93c0,.54.21,1.19.74,1.19s.74-.65.74-1.19-.16-1.2-.74-1.2S25.74,27,25.74,27.59Z" style="fill:#fff"/></g></svg>