<?xml version="1.0" encoding="utf-8"?>
<!-- Generator: Adobe Illustrator 24.1.2, SVG Export Plug-In . SVG Version: 6.00 Build 0)  -->
<svg version="1.1" xmlns="http://www.w3.org/2000/svg" xmlns:xlink="http://www.w3.org/1999/xlink" x="0px" y="0px"
	 viewBox="0 0 120 56" style="enable-background:new 0 0 120 56;" xml:space="preserve">
<style type="text/css">
	.st0{display:none;}
	.st1{display:inline;}
	.st2{fill:#B09038;}
	.st3{fill:#00703C;}
	.st4{fill:#31576F;}
	.st5{fill:#FFFFFF;}
</style>
<g id="Colors" class="st0">
</g>
<g id="Background">
	<g>
		<path class="st3" d="M4,55.5c-1.9,0-3.5-1.6-3.5-3.5V4c0-1.9,1.6-3.5,3.5-3.5h112c1.9,0,3.5,1.6,3.5,3.5v48c0,1.9-1.6,3.5-3.5,3.5
			H4z"/>
		<g>
			<path class="st3" d="M116,1c1.7,0,3,1.3,3,3v48c0,1.7-1.3,3-3,3H4c-1.7,0-3-1.3-3-3V4c0-1.7,1.3-3,3-3H116 M116,0H4
				C1.8,0,0,1.8,0,4v48c0,2.2,1.8,4,4,4h112c2.2,0,4-1.8,4-4V4C120,1.8,118.2,0,116,0L116,0z"/>
		</g>
	</g>
	<g>
		<path class="st5" d="M4,27.5c-1.9,0-3.5-1.6-3.5-3.5V4c0-1.9,1.6-3.5,3.5-3.5h112c1.9,0,3.5,1.6,3.5,3.5v20c0,1.9-1.6,3.5-3.5,3.5
			H4z"/>
		<path class="st2" d="M116,1c1.7,0,3,1.3,3,3v20c0,1.7-1.3,3-3,3H4c-1.7,0-3-1.3-3-3V4c0-1.7,1.3-3,3-3H116 M116,0H4
			C1.8,0,0,1.8,0,4v20c0,2.2,1.8,4,4,4h112c2.2,0,4-1.8,4-4V4C120,1.8,118.2,0,116,0L116,0z"/>
	</g>
</g>
<g id="DSF_Logo_1_">
	<g id="DSF_Logo">
		<g>
			<polygon class="st3" points="4.6,14 8.4,10.3 12,14 8.3,17.7 			"/>
			<path class="st5" d="M8.3,10.4l3.6,3.6l-3.6,3.6L4.7,14L8.3,10.4 M8.3,10.3L4.6,14l3.7,3.7l3.8-3.7L8.3,10.3L8.3,10.3z"/>
		</g>
		<g>
			<polygon class="st3" points="19.6,14 12.1,21.5 9.5,18.9 14.3,14 9.5,9.1 12.1,6.5 			"/>
		</g>
		<g>
			<polygon class="st5" points="4.6,14 8.4,10.3 12,14 8.3,17.7 			"/>
			<path class="st5" d="M8.3,10.4l3.6,3.6l-3.6,3.6L4.7,14L8.3,10.4 M8.3,10.2L4.6,14l3.7,3.7l3.8-3.7L8.3,10.2L8.3,10.2L8.3,10.2z"
				/>
		</g>
		<g>
			<polygon class="st2" points="12.1,14 8.3,17.7 4.6,14 8.3,10.2 8.3,10.3 			"/>
		</g>
	</g>
</g>
<g id="Text">
	<g>
		<path class="st4" d="M28.5,15.3c0-0.3-0.1-0.6-0.4-0.8s-0.7-0.4-1.3-0.6s-1.1-0.4-1.4-0.6c-1-0.5-1.5-1.2-1.5-2.1
			c0-0.5,0.1-0.9,0.4-1.2s0.6-0.6,1.1-0.8s1-0.3,1.6-0.3c0.6,0,1.2,0.1,1.6,0.3s0.8,0.5,1.1,0.9s0.4,0.9,0.4,1.4h-1.8
			c0-0.4-0.1-0.7-0.4-0.9s-0.6-0.3-1-0.3c-0.4,0-0.8,0.1-1,0.3s-0.4,0.4-0.4,0.7c0,0.3,0.1,0.5,0.4,0.7s0.7,0.4,1.2,0.5
			c1,0.3,1.7,0.7,2.2,1.1s0.7,1,0.7,1.7c0,0.7-0.3,1.3-0.8,1.7s-1.3,0.6-2.3,0.6c-0.7,0-1.3-0.1-1.8-0.4s-1-0.6-1.2-1
			s-0.4-0.9-0.4-1.5h1.8c0,0.9,0.6,1.4,1.7,1.4c0.4,0,0.7-0.1,1-0.3S28.5,15.6,28.5,15.3z"/>
		<path class="st4" d="M34.2,17.6c-0.9,0-1.7-0.3-2.3-0.9s-0.9-1.3-0.9-2.3v-0.2c0-0.6,0.1-1.2,0.4-1.7s0.6-0.9,1-1.2s1-0.4,1.5-0.4
			c0.9,0,1.5,0.3,2,0.8s0.7,1.3,0.7,2.3v0.7h-4c0.1,0.4,0.2,0.7,0.5,1s0.6,0.4,1,0.4c0.7,0,1.2-0.2,1.5-0.7l0.8,0.9
			c-0.3,0.4-0.6,0.6-1,0.8S34.8,17.6,34.2,17.6z M34,12.4c-0.3,0-0.6,0.1-0.8,0.3s-0.3,0.6-0.4,1h2.4v-0.1c0-0.4-0.1-0.7-0.3-0.9
			S34.4,12.4,34,12.4z"/>
		<path class="st4" d="M41.4,12.8c-0.2,0-0.4,0-0.6,0c-0.6,0-1.1,0.2-1.3,0.7v4.1h-1.7v-6.3h1.6l0,0.8c0.3-0.6,0.8-0.9,1.4-0.9
			c0.2,0,0.4,0,0.5,0.1L41.4,12.8z"/>
		<path class="st4" d="M44.7,15.4l1.2-4.3h1.8l-2.1,6.3h-1.6l-2.1-6.3h1.8L44.7,15.4z"/>
		<path class="st4" d="M48.3,9.5c0-0.3,0.1-0.5,0.3-0.6s0.4-0.2,0.7-0.2c0.3,0,0.5,0.1,0.7,0.2s0.3,0.4,0.3,0.6
			c0,0.3-0.1,0.5-0.3,0.6s-0.4,0.2-0.7,0.2s-0.5-0.1-0.7-0.2S48.3,9.8,48.3,9.5z M50.1,17.5h-1.7v-6.3h1.7V17.5z"/>
		<path class="st4" d="M54.2,16.3c0.3,0,0.6-0.1,0.8-0.3s0.3-0.4,0.3-0.7h1.6c0,0.4-0.1,0.8-0.4,1.2s-0.5,0.6-0.9,0.8
			s-0.8,0.3-1.3,0.3c-0.9,0-1.6-0.3-2.1-0.9s-0.8-1.4-0.8-2.4v-0.1c0-1,0.3-1.8,0.8-2.3s1.2-0.9,2.1-0.9c0.8,0,1.4,0.2,1.9,0.7
			s0.7,1.1,0.7,1.8h-1.6c0-0.3-0.1-0.6-0.3-0.8c-0.2-0.2-0.5-0.3-0.8-0.3c-0.4,0-0.7,0.1-0.9,0.4c-0.2,0.3-0.3,0.8-0.3,1.4v0.2
			c0,0.7,0.1,1.1,0.3,1.4S53.8,16.3,54.2,16.3z"/>
		<path class="st4" d="M60.7,17.6c-0.9,0-1.7-0.3-2.3-0.9s-0.9-1.3-0.9-2.3v-0.2c0-0.6,0.1-1.2,0.4-1.7s0.6-0.9,1-1.2s1-0.4,1.5-0.4
			c0.9,0,1.5,0.3,2,0.8s0.7,1.3,0.7,2.3v0.7h-4c0.1,0.4,0.2,0.7,0.5,1s0.6,0.4,1,0.4c0.7,0,1.2-0.2,1.5-0.7l0.8,0.9
			c-0.3,0.4-0.6,0.6-1,0.8S61.2,17.6,60.7,17.6z M60.5,12.4c-0.3,0-0.6,0.1-0.8,0.3s-0.3,0.6-0.4,1h2.4v-0.1c0-0.4-0.1-0.7-0.3-0.9
			S60.9,12.4,60.5,12.4z"/>
		<path class="st4" d="M71.8,15.3c0-0.3-0.1-0.6-0.4-0.8s-0.7-0.4-1.3-0.6s-1.1-0.4-1.4-0.6c-1-0.5-1.5-1.2-1.5-2.1
			c0-0.5,0.1-0.9,0.4-1.2s0.6-0.6,1.1-0.8s1-0.3,1.6-0.3c0.6,0,1.2,0.1,1.6,0.3s0.8,0.5,1.1,0.9s0.4,0.9,0.4,1.4h-1.8
			c0-0.4-0.1-0.7-0.4-0.9s-0.6-0.3-1-0.3c-0.4,0-0.8,0.1-1,0.3S69,11,69,11.2c0,0.3,0.1,0.5,0.4,0.7s0.7,0.4,1.2,0.5
			c1,0.3,1.7,0.7,2.2,1.1s0.7,1,0.7,1.7c0,0.7-0.3,1.3-0.8,1.7s-1.3,0.6-2.3,0.6c-0.7,0-1.3-0.1-1.8-0.4s-1-0.6-1.2-1
			S67,15.4,67,14.8h1.8c0,0.9,0.6,1.4,1.7,1.4c0.4,0,0.7-0.1,1-0.3S71.8,15.6,71.8,15.3z"/>
		<path class="st4" d="M76.7,9.6v1.6h1.1v1.2h-1.1v3.2c0,0.2,0,0.4,0.1,0.5s0.3,0.2,0.5,0.2c0.2,0,0.4,0,0.5,0v1.3
			c-0.3,0.1-0.7,0.2-1,0.2c-1.2,0-1.8-0.6-1.8-1.8v-3.4h-0.9v-1.2H75V9.6H76.7z"/>
		<path class="st4" d="M82.4,17.5c-0.1-0.2-0.1-0.3-0.2-0.6c-0.4,0.5-0.9,0.7-1.6,0.7c-0.6,0-1.1-0.2-1.5-0.5s-0.6-0.8-0.6-1.4
			c0-0.7,0.2-1.2,0.7-1.5s1.2-0.5,2.2-0.5h0.8v-0.4c0-0.3-0.1-0.5-0.2-0.7s-0.4-0.3-0.7-0.3c-0.3,0-0.5,0.1-0.7,0.2
			s-0.2,0.3-0.2,0.6h-1.7c0-0.4,0.1-0.7,0.3-1s0.5-0.6,1-0.7s0.9-0.3,1.4-0.3c0.8,0,1.4,0.2,1.9,0.6s0.7,0.9,0.7,1.7V16
			c0,0.6,0.1,1.1,0.3,1.4v0.1H82.4z M81,16.3c0.3,0,0.5-0.1,0.7-0.2s0.4-0.3,0.5-0.4v-1.1h-0.6c-0.8,0-1.3,0.3-1.4,0.9l0,0.1
			c0,0.2,0.1,0.4,0.2,0.5S80.7,16.3,81,16.3z"/>
		<path class="st4" d="M86.7,11.2l0.1,0.7c0.5-0.6,1.1-0.8,1.8-0.8c0.7,0,1.2,0.2,1.5,0.6s0.5,1,0.5,1.8v4.1h-1.7v-4.1
			c0-0.4-0.1-0.6-0.2-0.8s-0.4-0.2-0.8-0.2c-0.5,0-0.8,0.2-1.1,0.6v4.5h-1.7v-6.3H86.7z"/>
		<path class="st4" d="M91.6,14.3c0-1,0.2-1.8,0.7-2.4s1-0.9,1.8-0.9c0.6,0,1.1,0.2,1.5,0.7V8.5h1.7v9h-1.5l-0.1-0.7
			c-0.4,0.5-1,0.8-1.6,0.8c-0.7,0-1.3-0.3-1.8-0.9S91.6,15.3,91.6,14.3z M93.3,14.4c0,0.6,0.1,1.1,0.3,1.4c0.2,0.3,0.5,0.5,0.9,0.5
			c0.5,0,0.9-0.2,1.1-0.7v-2.5c-0.2-0.4-0.6-0.7-1.1-0.7C93.7,12.4,93.3,13.1,93.3,14.4z"/>
		<path class="st4" d="M102.3,17.5c-0.1-0.2-0.1-0.3-0.2-0.6c-0.4,0.5-0.9,0.7-1.6,0.7c-0.6,0-1.1-0.2-1.5-0.5s-0.6-0.8-0.6-1.4
			c0-0.7,0.2-1.2,0.7-1.5s1.2-0.5,2.2-0.5h0.8v-0.4c0-0.3-0.1-0.5-0.2-0.7s-0.4-0.3-0.7-0.3c-0.3,0-0.5,0.1-0.7,0.2
			s-0.2,0.3-0.2,0.6h-1.7c0-0.4,0.1-0.7,0.3-1s0.5-0.6,1-0.7s0.9-0.3,1.4-0.3c0.8,0,1.4,0.2,1.9,0.6s0.7,0.9,0.7,1.7V16
			c0,0.6,0.1,1.1,0.3,1.4v0.1H102.3z M100.9,16.3c0.3,0,0.5-0.1,0.7-0.2s0.4-0.3,0.5-0.4v-1.1h-0.6c-0.8,0-1.3,0.3-1.4,0.9l0,0.1
			c0,0.2,0.1,0.4,0.2,0.5S100.6,16.3,100.9,16.3z"/>
		<path class="st4" d="M108.6,12.8c-0.2,0-0.4,0-0.6,0c-0.6,0-1.1,0.2-1.3,0.7v4.1H105v-6.3h1.6l0,0.8c0.3-0.6,0.8-0.9,1.4-0.9
			c0.2,0,0.4,0,0.5,0.1L108.6,12.8z"/>
		<path class="st4" d="M109,14.3c0-1,0.2-1.8,0.7-2.4s1-0.9,1.8-0.9c0.6,0,1.1,0.2,1.5,0.7V8.5h1.7v9h-1.5l-0.1-0.7
			c-0.4,0.5-1,0.8-1.6,0.8c-0.7,0-1.3-0.3-1.8-0.9S109,15.3,109,14.3z M110.7,14.4c0,0.6,0.1,1.1,0.3,1.4c0.2,0.3,0.5,0.5,0.9,0.5
			c0.5,0,0.9-0.2,1.1-0.7v-2.5c-0.2-0.4-0.6-0.7-1.1-0.7C111.2,12.4,110.7,13.1,110.7,14.4z"/>
	</g>
	<g>
		<path class="st5" d="M38.7,43.4l1.9-6.4h2l-3,8.5h-1.8l-3-8.5h2L38.7,43.4z"/>
		<path class="st5" d="M48.6,41.8h-3.4v2.3h4v1.4h-5.7V37h5.7v1.4h-3.9v2h3.4V41.8z"/>
		<path class="st5" d="M53.3,42.4h-1.4v3.1h-1.8V37h3.2c1,0,1.8,0.2,2.3,0.7s0.8,1.1,0.8,1.9c0,0.6-0.1,1.1-0.4,1.5
			s-0.6,0.7-1.1,0.9l1.8,3.5v0.1h-1.9L53.3,42.4z M51.9,41h1.4c0.4,0,0.8-0.1,1-0.3s0.4-0.5,0.4-0.9c0-0.4-0.1-0.7-0.3-0.9
			s-0.6-0.3-1.1-0.3h-1.4V41z"/>
		<path class="st5" d="M59.7,45.5h-1.8V37h1.8V45.5z"/>
		<path class="st5" d="M66.5,42h-3.4v3.5h-1.8V37h5.6v1.4h-3.8v2.2h3.4V42z"/>
		<path class="st5" d="M69.8,45.5H68V37h1.8V45.5z"/>
		<path class="st5" d="M76.5,41.8h-3.4v2.3h4v1.4h-5.7V37h5.7v1.4h-3.9v2h3.4V41.8z"/>
		<path class="st5" d="M78.1,45.5V37h2.6c0.8,0,1.4,0.2,2,0.5s1.1,0.8,1.4,1.4s0.5,1.3,0.5,2.1v0.4c0,0.8-0.2,1.5-0.5,2.1
			s-0.8,1.1-1.4,1.4s-1.3,0.5-2,0.5H78.1z M79.9,38.4v5.7h0.8c0.7,0,1.2-0.2,1.6-0.7s0.5-1.1,0.6-1.9V41c0-0.9-0.2-1.5-0.5-2
			s-0.9-0.7-1.6-0.7H79.9z"/>
	</g>
</g>
</svg>
